<?xml version='1.0' encoding='utf-8'?>
<svg xmlns:ns0="http://www.w3.org/2000/svg" xmlns="http://www.w3.org/2000/svg" width="1920" height="1660" viewBox="0 0 1920 1660" role="img"><title>Smart HelpDesk &amp; Maintenance</title><desc>Thiết kế mục tiêu AIS. Icon Lucide, chữ và đường nối vector.</desc><defs><marker id="arrow1D4ED8" viewBox="0 0 10 10" refX="9" refY="5" markerWidth="7" markerHeight="7" orient="auto"><path d="M0 0 L10 5 L0 10z" fill="#1D4ED8" /></marker></defs><rect x="0" y="0" width="1920" height="1660" rx="14" fill="#F8FAFC" stroke="#F8FAFC" stroke-width="1.5" /><text x="64" y="82.0" fill="#0F172A" font-size="40" font-family="Segoe UI, Inter, Arial, sans-serif" font-weight="700">Smart HelpDesk &amp; Maintenance</text><text x="64" y="121.0" fill="#475569" font-size="23" font-family="Segoe UI, Inter, Arial, sans-serif" font-weight="400">Từ giá trị doanh nghiệp đến domain và Agent Harness · AIS dịch vụ bảo trì công nghiệp B2B</text><rect x="64" y="146" width="1792" height="62" rx="14" fill="#0F172A" stroke="#0F172A" stroke-width="1.5" /><text x="92" y="187.0" fill="#FFFFFF" font-size="24" font-family="Segoe UI, Inter, Arial, sans-serif" font-weight="400">Khôi phục đúng cam kết  •  Phòng ngừa thực hiện được  •  Vật tư có trách nhiệm  •  Phí minh bạch  •  Cải tiến có dữ liệu</text><text x="64" y="261.0" fill="#1D4ED8" font-size="24" font-family="Segoe UI, Inter, Arial, sans-serif" font-weight="700">Người dùng và quyền quyết định</text><rect x="64" y="278" width="336" height="70" rx="14" fill="#FFFFFF" stroke="#E2E8F0" stroke-width="1.5" /><ns0:svg width="32" height="32" viewBox="0 0 24 24" fill="none" stroke="#1D4ED8" stroke-width="2" stroke-linecap="round" stroke-linejoin="round" x="82" y="296">
  <ns0:path d="M12 16h.01" />
  <ns0:path d="M16 16h.01" />
  <ns0:path d="M3 19a2 2 0 0 0 2 2h14a2 2 0 0 0 2-2V8.5a.5.5 0 0 0-.769-.422l-4.462 2.844A.5.5 0 0 1 15 10.5v-2a.5.5 0 0 0-.769-.422L9.77 10.922A.5.5 0 0 1 9 10.5V5a2 2 0 0 0-2-2H5a2 2 0 0 0-2 2z" />
  <ns0:path d="M8 16h.01" />
</ns0:svg><text x="129" y="323.0" fill="#0F172A" font-size="23" font-family="Segoe UI, Inter, Arial, sans-serif" font-weight="700">Khách / người duyệt</text><rect x="428" y="278" width="336" height="70" rx="14" fill="#FFFFFF" stroke="#E2E8F0" stroke-width="1.5" /><ns0:svg width="32" height="32" viewBox="0 0 24 24" fill="none" stroke="#1D4ED8" stroke-width="2" stroke-linecap="round" stroke-linejoin="round" x="446" y="296">
  <ns0:path d="M14.7 6.3a1 1 0 0 0 0 1.4l1.6 1.6a1 1 0 0 0 1.4 0l3.106-3.105c.32-.322.863-.22.983.218a6 6 0 0 1-8.259 7.057l-7.91 7.91a1 1 0 0 1-2.999-3l7.91-7.91a6 6 0 0 1 7.057-8.259c.438.12.54.662.219.984z" />
</ns0:svg><text x="493" y="323.0" fill="#0F172A" font-size="23" font-family="Segoe UI, Inter, Arial, sans-serif" font-weight="700">Điều phối / KTV</text><rect x="792" y="278" width="336" height="70" rx="14" fill="#FFFFFF" stroke="#E2E8F0" stroke-width="1.5" /><ns0:svg width="32" height="32" viewBox="0 0 24 24" fill="none" stroke="#1D4ED8" stroke-width="2" stroke-linecap="round" stroke-linejoin="round" x="810" y="296">
  <ns0:path d="M14 18V6a2 2 0 0 0-2-2H4a2 2 0 0 0-2 2v11a1 1 0 0 0 1 1h2" />
  <ns0:path d="M15 18H9" />
  <ns0:path d="M19 18h2a1 1 0 0 0 1-1v-3.65a1 1 0 0 0-.22-.624l-3.48-4.35A1 1 0 0 0 17.52 8H14" />
  <ns0:circle cx="17" cy="18" r="2" />
  <ns0:circle cx="7" cy="18" r="2" />
</ns0:svg><text x="857" y="323.0" fill="#0F172A" font-size="23" font-family="Segoe UI, Inter, Arial, sans-serif" font-weight="700">Kho / mua hàng</text><rect x="1156" y="278" width="336" height="70" rx="14" fill="#FFFFFF" stroke="#E2E8F0" stroke-width="1.5" /><ns0:svg width="32" height="32" viewBox="0 0 24 24" fill="none" stroke="#1D4ED8" stroke-width="2" stroke-linecap="round" stroke-linejoin="round" x="1174" y="296">
  <ns0:path d="M12 17V7" />
  <ns0:path d="M16 8h-6a2 2 0 0 0 0 4h4a2 2 0 0 1 0 4H8" />
  <ns0:path d="M4 3a1 1 0 0 1 1-1 1.3 1.3 0 0 1 .7.2l.933.6a1.3 1.3 0 0 0 1.4 0l.934-.6a1.3 1.3 0 0 1 1.4 0l.933.6a1.3 1.3 0 0 0 1.4 0l.933-.6a1.3 1.3 0 0 1 1.4 0l.934.6a1.3 1.3 0 0 0 1.4 0l.933-.6A1.3 1.3 0 0 1 19 2a1 1 0 0 1 1 1v18a1 1 0 0 1-1 1 1.3 1.3 0 0 1-.7-.2l-.933-.6a1.3 1.3 0 0 0-1.4 0l-.934.6a1.3 1.3 0 0 1-1.4 0l-.933-.6a1.3 1.3 0 0 0-1.4 0l-.933.6a1.3 1.3 0 0 1-1.4 0l-.934-.6a1.3 1.3 0 0 0-1.4 0l-.933.6a1.3 1.3 0 0 1-.7.2 1 1 0 0 1-1-1z" />
</ns0:svg><text x="1221" y="323.0" fill="#0F172A" font-size="23" font-family="Segoe UI, Inter, Arial, sans-serif" font-weight="700">Kế toán dịch vụ</text><rect x="1520" y="278" width="336" height="70" rx="14" fill="#FFFFFF" stroke="#E2E8F0" stroke-width="1.5" /><ns0:svg width="32" height="32" viewBox="0 0 24 24" fill="none" stroke="#1D4ED8" stroke-width="2" stroke-linecap="round" stroke-linejoin="round" x="1538" y="296">
  <ns0:path d="M16 21v-2a4 4 0 0 0-4-4H6a4 4 0 0 0-4 4v2" />
  <ns0:path d="M16 3.128a4 4 0 0 1 0 7.744" />
  <ns0:path d="M22 21v-2a4 4 0 0 0-3-3.87" />
  <ns0:circle cx="9" cy="7" r="4" />
</ns0:svg><text x="1585" y="323.0" fill="#0F172A" font-size="23" font-family="Segoe UI, Inter, Arial, sans-serif" font-weight="700">Quản lý / quản trị</text><text x="64" y="397.0" fill="#1D4ED8" font-size="24" font-family="Segoe UI, Inter, Arial, sans-serif" font-weight="700">Kênh tiếp nhận và tác nghiệp</text><rect x="64" y="412" width="572" height="82" rx="14" fill="#EFF6FF" stroke="#BFDBFE" stroke-width="1.5" /><ns0:svg width="32" height="32" viewBox="0 0 24 24" fill="none" stroke="#1D4ED8" stroke-width="2" stroke-linecap="round" stroke-linejoin="round" x="84" y="436">
  <ns0:circle cx="12" cy="12" r="10" />
  <ns0:path d="M12 2a14.5 14.5 0 0 0 0 20 14.5 14.5 0 0 0 0-20" />
  <ns0:path d="M2 12h20" />
</ns0:svg><text x="132" y="450.0" fill="#1D4ED8" font-size="24" font-family="Segoe UI, Inter, Arial, sans-serif" font-weight="700">Portal khách hàng</text><text x="132" y="482.0" fill="#475569" font-size="20" font-family="Segoe UI, Inter, Arial, sans-serif" font-weight="400">Báo lỗi, tiến độ, đồng ý và nghiệm thu</text><path stroke-width="2.5" marker-end="url(#arrow1D4ED8)" d="M350 496 L350 516" fill="none" stroke="#1D4ED8" /><rect x="674" y="412" width="572" height="82" rx="14" fill="#EFF6FF" stroke="#BFDBFE" stroke-width="1.5" /><ns0:svg width="32" height="32" viewBox="0 0 24 24" fill="none" stroke="#1D4ED8" stroke-width="2" stroke-linecap="round" stroke-linejoin="round" x="694" y="436">
  <ns0:path d="M16 21v-2a4 4 0 0 0-4-4H6a4 4 0 0 0-4 4v2" />
  <ns0:path d="M16 3.128a4 4 0 0 1 0 7.744" />
  <ns0:path d="M22 21v-2a4 4 0 0 0-3-3.87" />
  <ns0:circle cx="9" cy="7" r="4" />
</ns0:svg><text x="742" y="450.0" fill="#1D4ED8" font-size="24" font-family="Segoe UI, Inter, Arial, sans-serif" font-weight="700">Desk web / điện thoại</text><text x="742" y="482.0" fill="#475569" font-size="20" font-family="Segoe UI, Inter, Arial, sans-serif" font-weight="400">Nhân sự AIS tác nghiệp theo vai trò</text><path stroke-width="2.5" marker-end="url(#arrow1D4ED8)" d="M960 496 L960 516" fill="none" stroke="#1D4ED8" /><rect x="1284" y="412" width="572" height="82" rx="14" fill="#EFF6FF" stroke="#BFDBFE" stroke-width="1.5" /><ns0:svg width="32" height="32" viewBox="0 0 24 24" fill="none" stroke="#1D4ED8" stroke-width="2" stroke-linecap="round" stroke-linejoin="round" x="1304" y="436">
  <ns0:path d="M2.992 16.342a2 2 0 0 1 .094 1.167l-1.065 3.29a1 1 0 0 0 1.236 1.168l3.413-.998a2 2 0 0 1 1.099.092 10 10 0 1 0-4.777-4.719" />
</ns0:svg><text x="1352" y="450.0" fill="#1D4ED8" font-size="24" font-family="Segoe UI, Inter, Arial, sans-serif" font-weight="700">Hotline / Zalo: nhập hộ</text><text x="1352" y="482.0" fill="#475569" font-size="20" font-family="Segoe UI, Inter, Arial, sans-serif" font-weight="400">Kênh ngoài hệ thống ở phạm vi ban đầu</text><path stroke-width="2.5" marker-end="url(#arrow1D4ED8)" d="M1570 496 L1570 516" fill="none" stroke="#1D4ED8" /><text x="64" y="551.0" fill="#1D4ED8" font-size="25" font-family="Segoe UI, Inter, Arial, sans-serif" font-weight="700">Năng lực nghiệp vụ · mỗi module có owner, quy tắc, dữ liệu và tiêu chí nghiệm thu</text><rect x="64" y="575" width="572" height="196" rx="14" fill="#EFF6FF" stroke="#1D4ED8" stroke-width="1.5" /><ns0:svg width="38" height="38" viewBox="0 0 24 24" fill="none" stroke="#1D4ED8" stroke-width="2" stroke-linecap="round" stroke-linejoin="round" x="86" y="597">
  <ns0:path d="M6 22a2 2 0 0 1-2-2V4a2 2 0 0 1 2-2h8a2.4 2.4 0 0 1 1.704.706l3.588 3.588A2.4 2.4 0 0 1 20 8v12a2 2 0 0 1-2 2z" />
  <ns0:path d="M14 2v5a1 1 0 0 0 1 1h5" />
  <ns0:path d="M10 9H8" />
  <ns0:path d="M16 13H8" />
  <ns0:path d="M16 17H8" />
</ns0:svg><text x="140" y="622.0" fill="#0F172A" font-size="26" font-family="Segoe UI, Inter, Arial, sans-serif" font-weight="700">M01  Khách hàng &amp; hợp đồng</text><text x="88" y="676.0" fill="#475569" font-size="22" font-family="Segoe UI, Inter, Arial, sans-serif" font-weight="400">Khách / site / người có thẩm quyền</text><text x="88" y="707.9" fill="#475569" font-size="22" font-family="Segoe UI, Inter, Arial, sans-serif" font-weight="400">Phạm vi, cam kết và version</text><text x="88" y="739.8" fill="#475569" font-size="22" font-family="Segoe UI, Inter, Arial, sans-serif" font-weight="400">Quyền lợi tại thời điểm phục vụ</text><text x="88" y="762.0" fill="#1D4ED8" font-size="18" font-family="Segoe UI, Inter, Arial, sans-serif" font-weight="700">PP-01/02 · US-01–04</text><rect x="674" y="575" width="572" height="196" rx="14" fill="#EFF6FF" stroke="#1D4ED8" stroke-width="1.5" /><ns0:svg width="38" height="38" viewBox="0 0 24 24" fill="none" stroke="#1D4ED8" stroke-width="2" stroke-linecap="round" stroke-linejoin="round" x="696" y="597">
  <ns0:rect width="8" height="4" x="8" y="2" rx="1" ry="1" />
  <ns0:path d="M16 4h2a2 2 0 0 1 2 2v14a2 2 0 0 1-2 2H6a2 2 0 0 1-2-2V6a2 2 0 0 1 2-2h2" />
  <ns0:path d="M12 11h4" />
  <ns0:path d="M12 16h4" />
  <ns0:path d="M8 11h.01" />
  <ns0:path d="M8 16h.01" />
</ns0:svg><text x="750" y="622.0" fill="#0F172A" font-size="26" font-family="Segoe UI, Inter, Arial, sans-serif" font-weight="700">M02  Tiếp nhận &amp; SLA</text><text x="698" y="676.0" fill="#475569" font-size="22" font-family="Segoe UI, Inter, Arial, sans-serif" font-weight="400">Báo lỗi, triage và ca liên quan</text><text x="698" y="707.9" fill="#475569" font-size="22" font-family="Segoe UI, Inter, Arial, sans-serif" font-weight="400">Mốc thực, hạn và lý do chờ</text><text x="698" y="739.8" fill="#475569" font-size="22" font-family="Segoe UI, Inter, Arial, sans-serif" font-weight="400">Owner, timeline và escalation</text><text x="698" y="762.0" fill="#1D4ED8" font-size="18" font-family="Segoe UI, Inter, Arial, sans-serif" font-weight="700">PP-03/04 · US-05–08</text><rect x="1284" y="575" width="572" height="196" rx="14" fill="#ECFDF5" stroke="#047857" stroke-width="1.5" /><ns0:svg width="38" height="38" viewBox="0 0 24 24" fill="none" stroke="#047857" stroke-width="2" stroke-linecap="round" stroke-linejoin="round" x="1306" y="597">
  <ns0:path d="M14.7 6.3a1 1 0 0 0 0 1.4l1.6 1.6a1 1 0 0 0 1.4 0l3.106-3.105c.32-.322.863-.22.983.218a6 6 0 0 1-8.259 7.057l-7.91 7.91a1 1 0 0 1-2.999-3l7.91-7.91a6 6 0 0 1 7.057-8.259c.438.12.54.662.219.984z" />
</ns0:svg><text x="1360" y="622.0" fill="#0F172A" font-size="26" font-family="Segoe UI, Inter, Arial, sans-serif" font-weight="700">M03  Điều phối &amp; tác nghiệp</text><text x="1308" y="676.0" fill="#475569" font-size="22" font-family="Segoe UI, Inter, Arial, sans-serif" font-weight="400">Work order và từng lượt thực hiện</text><text x="1308" y="707.9" fill="#475569" font-size="22" font-family="Segoe UI, Inter, Arial, sans-serif" font-weight="400">Kỹ năng, lịch và nguồn lực</text><text x="1308" y="739.8" fill="#475569" font-size="22" font-family="Segoe UI, Inter, Arial, sans-serif" font-weight="400">Khôi phục, nghiệm thu, callback</text><text x="1308" y="762.0" fill="#047857" font-size="18" font-family="Segoe UI, Inter, Arial, sans-serif" font-weight="700">PP-05/06 · US-09–12</text><rect x="64" y="795" width="572" height="196" rx="14" fill="#ECFDF5" stroke="#047857" stroke-width="1.5" /><ns0:svg width="38" height="38" viewBox="0 0 24 24" fill="none" stroke="#047857" stroke-width="2" stroke-linecap="round" stroke-linejoin="round" x="86" y="817">
  <ns0:path d="M12 20v2" />
  <ns0:path d="M12 2v2" />
  <ns0:path d="M17 20v2" />
  <ns0:path d="M17 2v2" />
  <ns0:path d="M2 12h2" />
  <ns0:path d="M2 17h2" />
  <ns0:path d="M2 7h2" />
  <ns0:path d="M20 12h2" />
  <ns0:path d="M20 17h2" />
  <ns0:path d="M20 7h2" />
  <ns0:path d="M7 20v2" />
  <ns0:path d="M7 2v2" />
  <ns0:rect x="4" y="4" width="16" height="16" rx="2" />
  <ns0:rect x="8" y="8" width="8" height="8" rx="1" />
</ns0:svg><text x="140" y="842.0" fill="#0F172A" font-size="26" font-family="Segoe UI, Inter, Arial, sans-serif" font-weight="700">M04  Thiết bị &amp; bảo trì</text><text x="88" y="896.0" fill="#475569" font-size="22" font-family="Segoe UI, Inter, Arial, sans-serif" font-weight="400">Máy, model, cấu hình và lịch sử</text><text x="88" y="927.9" fill="#475569" font-size="22" font-family="Segoe UI, Inter, Arial, sans-serif" font-weight="400">Checklist, kỳ PM và cửa sổ máy</text><text x="88" y="959.8" fill="#475569" font-size="22" font-family="Segoe UI, Inter, Arial, sans-serif" font-weight="400">Bất thường có owner và hành động</text><text x="88" y="982.0" fill="#047857" font-size="18" font-family="Segoe UI, Inter, Arial, sans-serif" font-weight="700">PP-07/08 · US-13–16</text><rect x="674" y="795" width="572" height="196" rx="14" fill="#FFFBEB" stroke="#B45309" stroke-width="1.5" /><ns0:svg width="38" height="38" viewBox="0 0 24 24" fill="none" stroke="#B45309" stroke-width="2" stroke-linecap="round" stroke-linejoin="round" x="696" y="817">
  <ns0:path d="M11 21.73a2 2 0 0 0 2 0l7-4A2 2 0 0 0 21 16V8a2 2 0 0 0-1-1.73l-7-4a2 2 0 0 0-2 0l-7 4A2 2 0 0 0 3 8v8a2 2 0 0 0 1 1.73z" />
  <ns0:path d="M12 22V12" />
  <ns0:polyline points="3.29 7 12 12 20.71 7" />
  <ns0:path d="m7.5 4.27 9 5.15" />
</ns0:svg><text x="750" y="842.0" fill="#0F172A" font-size="26" font-family="Segoe UI, Inter, Arial, sans-serif" font-weight="700">M05  Kho &amp; vật tư</text><text x="698" y="896.0" fill="#475569" font-size="22" font-family="Segoe UI, Inter, Arial, sans-serif" font-weight="400">Tồn thực, khả dụng và giữ chỗ</text><text x="698" y="927.9" fill="#475569" font-size="22" font-family="Segoe UI, Inter, Arial, sans-serif" font-weight="400">Kho tổng / xe, bàn giao và trả</text><text x="698" y="959.8" fill="#475569" font-size="22" font-family="Segoe UI, Inter, Arial, sans-serif" font-weight="400">Tiêu hao đúng ca / máy / lượt</text><text x="698" y="982.0" fill="#B45309" font-size="18" font-family="Segoe UI, Inter, Arial, sans-serif" font-weight="700">PP-09/10 · US-17–20</text><rect x="1284" y="795" width="572" height="196" rx="14" fill="#FFFBEB" stroke="#B45309" stroke-width="1.5" /><ns0:svg width="38" height="38" viewBox="0 0 24 24" fill="none" stroke="#B45309" stroke-width="2" stroke-linecap="round" stroke-linejoin="round" x="1306" y="817">
  <ns0:path d="m2.05 2.05 1.099-.028a1 1 0 0 1 1.008.815l2.69 14.347A1 1 0 0 0 7.83 18H18" />
  <ns0:path d="M4.563 5h16.435a1 1 0 0 1 .981 1.204l-1.026 6.226A2 2 0 0 1 18.962 14H6.25" />
  <ns0:circle cx="18" cy="20" r="2" />
  <ns0:circle cx="8" cy="20" r="2" />
</ns0:svg><text x="1360" y="842.0" fill="#0F172A" font-size="26" font-family="Segoe UI, Inter, Arial, sans-serif" font-weight="700">M06  Mua hàng &amp; bổ sung</text><text x="1308" y="896.0" fill="#475569" font-size="22" font-family="Segoe UI, Inter, Arial, sans-serif" font-weight="400">Nhu cầu ròng, đơn đang mở</text><text x="1308" y="927.9" fill="#475569" font-size="22" font-family="Segoe UI, Inter, Arial, sans-serif" font-weight="400">Duyệt mua, PO và ETA</text><text x="1308" y="959.8" fill="#475569" font-size="22" font-family="Segoe UI, Inter, Arial, sans-serif" font-weight="400">Nhận một phần, reject và return</text><text x="1308" y="982.0" fill="#B45309" font-size="18" font-family="Segoe UI, Inter, Arial, sans-serif" font-weight="700">PP-11/12 · US-21–24</text><rect x="64" y="1015" width="572" height="196" rx="14" fill="#F0F9FF" stroke="#0284C7" stroke-width="1.5" /><ns0:svg width="38" height="38" viewBox="0 0 24 24" fill="none" stroke="#0284C7" stroke-width="2" stroke-linecap="round" stroke-linejoin="round" x="86" y="1037">
  <ns0:path d="M12 17V7" />
  <ns0:path d="M16 8h-6a2 2 0 0 0 0 4h4a2 2 0 0 1 0 4H8" />
  <ns0:path d="M4 3a1 1 0 0 1 1-1 1.3 1.3 0 0 1 .7.2l.933.6a1.3 1.3 0 0 0 1.4 0l.934-.6a1.3 1.3 0 0 1 1.4 0l.933.6a1.3 1.3 0 0 0 1.4 0l.933-.6a1.3 1.3 0 0 1 1.4 0l.934.6a1.3 1.3 0 0 0 1.4 0l.933-.6A1.3 1.3 0 0 1 19 2a1 1 0 0 1 1 1v18a1 1 0 0 1-1 1 1.3 1.3 0 0 1-.7-.2l-.933-.6a1.3 1.3 0 0 0-1.4 0l-.934.6a1.3 1.3 0 0 1-1.4 0l-.933-.6a1.3 1.3 0 0 0-1.4 0l-.933.6a1.3 1.3 0 0 1-1.4 0l-.934-.6a1.3 1.3 0 0 0-1.4 0l-.933.6a1.3 1.3 0 0 1-.7.2 1 1 0 0 1-1-1z" />
</ns0:svg><text x="140" y="1062.0" fill="#0F172A" font-size="26" font-family="Segoe UI, Inter, Arial, sans-serif" font-weight="700">M07  Chi phí &amp; hóa đơn</text><text x="88" y="1116.0" fill="#475569" font-size="22" font-family="Segoe UI, Inter, Arial, sans-serif" font-weight="400">Quyền lợi và phát sinh được duyệt</text><text x="88" y="1147.9" fill="#475569" font-size="22" font-family="Segoe UI, Inter, Arial, sans-serif" font-weight="400">Công, vật tư và phí có nguồn</text><text x="88" y="1179.8" fill="#475569" font-size="22" font-family="Segoe UI, Inter, Arial, sans-serif" font-weight="400">Hóa đơn, đối soát và điều chỉnh</text><text x="88" y="1202.0" fill="#0284C7" font-size="18" font-family="Segoe UI, Inter, Arial, sans-serif" font-weight="700">PP-13/14 · US-25–28</text><rect x="674" y="1015" width="572" height="196" rx="14" fill="#F0F9FF" stroke="#0284C7" stroke-width="1.5" /><ns0:svg width="38" height="38" viewBox="0 0 24 24" fill="none" stroke="#0284C7" stroke-width="2" stroke-linecap="round" stroke-linejoin="round" x="696" y="1037">
  <ns0:path d="M12 16v5" />
  <ns0:path d="M16 14.639V21" />
  <ns0:path d="M20 10.656V21" />
  <ns0:path d="m22 3-8.646 8.646a.5.5 0 0 1-.708 0L9.354 8.354a.5.5 0 0 0-.707 0L2 15" />
  <ns0:path d="M4 18.463V21" />
  <ns0:path d="M8 14.656V21" />
</ns0:svg><text x="750" y="1062.0" fill="#0F172A" font-size="26" font-family="Segoe UI, Inter, Arial, sans-serif" font-weight="700">M08  Báo cáo &amp; KPI</text><text x="698" y="1116.0" fill="#475569" font-size="22" font-family="Segoe UI, Inter, Arial, sans-serif" font-weight="400">Dashboard ca cần hành động</text><text x="698" y="1147.9" fill="#475569" font-size="22" font-family="Segoe UI, Inter, Arial, sans-serif" font-weight="400">SLA, FTFR, PM và chi phí</text><text x="698" y="1179.8" fill="#475569" font-size="22" font-family="Segoe UI, Inter, Arial, sans-serif" font-weight="400">Công thức, kỳ và dữ liệu nguồn</text><text x="698" y="1202.0" fill="#0284C7" font-size="18" font-family="Segoe UI, Inter, Arial, sans-serif" font-weight="700">PP-15/16 · US-29–32</text><rect x="1284" y="1015" width="572" height="196" rx="14" fill="#F8FAFC" stroke="#64748B" stroke-width="1.5" /><ns0:svg width="38" height="38" viewBox="0 0 24 24" fill="none" stroke="#64748B" stroke-width="2" stroke-linecap="round" stroke-linejoin="round" x="1306" y="1037">
  <ns0:path d="M12 5v16" />
  <ns0:path d="M20.001 19A2 2 0 0022 17V5a2 2 0 00-1.999-2L16 3.002A5 5 0 0012 5a5 5 0 00-4-2H4a2 2 0 00-2 2v12a2 2 0 001.999 2H8a5 5 0 014 2 5 5 0 014-2z" />
</ns0:svg><text x="1360" y="1062.0" fill="#0F172A" font-size="26" font-family="Segoe UI, Inter, Arial, sans-serif" font-weight="700">M09  Tri thức kỹ thuật</text><text x="1308" y="1116.0" fill="#475569" font-size="22" font-family="Segoe UI, Inter, Arial, sans-serif" font-weight="400">SOP, model, revision và người duyệt</text><text x="1308" y="1147.9" fill="#475569" font-size="22" font-family="Segoe UI, Inter, Arial, sans-serif" font-weight="400">Ingestion / hybrid retrieval / evidence</text><text x="1308" y="1179.8" fill="#475569" font-size="22" font-family="Segoe UI, Inter, Arial, sans-serif" font-weight="400">Freshness, quyền nguồn và bài học</text><text x="1308" y="1202.0" fill="#64748B" font-size="18" font-family="Segoe UI, Inter, Arial, sans-serif" font-weight="700">PP-17/18 · US-33/34</text><rect x="64" y="1238" width="1792" height="94" rx="14" fill="#F0F9FF" stroke="#0284C7" stroke-width="1.5" /><ns0:svg width="38" height="38" viewBox="0 0 24 24" fill="none" stroke="#0284C7" stroke-width="2" stroke-linecap="round" stroke-linejoin="round" x="88" y="1266">
  <ns0:path d="M12 20v2" />
  <ns0:path d="M12 2v2" />
  <ns0:path d="M17 20v2" />
  <ns0:path d="M17 2v2" />
  <ns0:path d="M2 12h2" />
  <ns0:path d="M2 17h2" />
  <ns0:path d="M2 7h2" />
  <ns0:path d="M20 12h2" />
  <ns0:path d="M20 17h2" />
  <ns0:path d="M20 7h2" />
  <ns0:path d="M7 20v2" />
  <ns0:path d="M7 2v2" />
  <ns0:rect x="4" y="4" width="16" height="16" rx="2" />
  <ns0:rect x="8" y="8" width="8" height="8" rx="1" />
</ns0:svg><text x="149" y="1279.0" fill="#0284C7" font-size="28" font-family="Segoe UI, Inter, Arial, sans-serif" font-weight="700">Agent Harness — runtime điều phối ngang M01–M10</text><text x="149" y="1313.0" fill="#475569" font-size="22" font-family="Segoe UI, Inter, Arial, sans-serif" font-weight="400">Plan → Act → Observe → Evaluate/Replan  •  Typed tools  •  Durable checkpoint  •  Approval  •  Evidence / budget</text><rect x="64" y="1360" width="1792" height="108" rx="14" fill="#EFF6FF" stroke="#1D4ED8" stroke-width="1.5" /><ns0:svg width="42" height="42" viewBox="0 0 24 24" fill="none" stroke="#1D4ED8" stroke-width="2" stroke-linecap="round" stroke-linejoin="round" x="90" y="1390">
  <ns0:path d="M20 13c0 5-3.5 7.5-7.66 8.95a1 1 0 0 1-.67-.01C7.5 20.5 4 18 4 13V6a1 1 0 0 1 1-1c2 0 4.5-1.2 6.24-2.72a1.17 1.17 0 0 1 1.52 0C14.51 3.81 17 5 19 5a1 1 0 0 1 1 1z" />
  <ns0:path d="m9 12 2 2 4-4" />
</ns0:svg><text x="150" y="1406.0" fill="#1D4ED8" font-size="28" font-family="Segoe UI, Inter, Arial, sans-serif" font-weight="700">M10  Quản trị &amp; kiểm soát — authority nghiệp vụ xuyên suốt</text><text x="150" y="1443.0" fill="#475569" font-size="22" font-family="Segoe UI, Inter, Arial, sans-serif" font-weight="400">Identity / scope  •  Approval bind payload/version  •  Audit  •  Chất lượng dữ liệu  •  Thu hồi quyền và phục hồi</text><text x="1500" y="1406.0" fill="#1D4ED8" font-size="20" font-family="Segoe UI, Inter, Arial, sans-serif" font-weight="400">PP-19/20 · US-37–40</text><path stroke-width="2.5" marker-end="url(#arrow1D4ED8)" d="M960 1470 L960 1495" fill="none" stroke="#1D4ED8" /><rect x="64" y="1500" width="1792" height="84" rx="14" fill="#0F172A" stroke="#0F172A" stroke-width="1.5" /><ns0:svg width="32" height="32" viewBox="0 0 24 24" fill="none" stroke="#FFFFFF" stroke-width="2" stroke-linecap="round" stroke-linejoin="round" x="91" y="1525">
  <ns0:ellipse cx="12" cy="5" rx="9" ry="3" />
  <ns0:path d="M3 5V19A9 3 0 0 0 21 19V5" />
  <ns0:path d="M3 12A9 3 0 0 0 21 12" />
</ns0:svg><text x="144" y="1541.0" fill="#FFFFFF" font-size="26" font-family="Segoe UI, Inter, Arial, sans-serif" font-weight="700">Ứng viên hiện thực: ERPNext / Frappe + runtime state store</text><text x="144" y="1575.0" fill="#CBD5E1" font-size="21" font-family="Segoe UI, Inter, Arial, sans-serif" font-weight="400">Domain transactions / validation / quyền server • command receipt / outbox • API • jobs • Local hoặc Cloud</text><text x="64" y="1628.0" fill="#475569" font-size="18" font-family="Segoe UI, Inter, Arial, sans-serif" font-weight="400">AIS · Thiết kế v3.0 · Kiến trúc mục tiêu; runtime chưa triển khai · Icon Lucide</text></svg>